<svg version="1.1" xmlns="http://www.w3.org/2000/svg" xmlns:xlink="http://www.w3.org/1999/xlink" width="150" height="150" viewBox="0,0,150,150"><g transform="translate(-165,-105)"><g data-paper-data="{&quot;isPaintingLayer&quot;:true}" fill="#ffd700" fill-rule="nonzero" stroke="none" stroke-linecap="butt" stroke-linejoin="miter" stroke-miterlimit="4" stroke-dasharray="" stroke-dashoffset="0" style="mix-blend-mode: normal"><g><path d="M217.11722,128.71861l32.98415,4.55483l-23.70901,23.4844c28.51991,26.92761 57.11789,53.97541 85.62879,80.80492c3.9913,4.00853 3.96887,10.48519 -0.05006,14.46613c-4.01902,3.9809 -10.51262,3.95853 -14.50397,-0.04993c-26.56219,-28.74645 -54.63866,-56.34948 -81.40811,-84.9856l-17.59834,17.43161l-18.66148,-18.74181z" stroke-width="0.48919"/><path d="M239.99953,105c17.58724,4.63749 33.12105,15.15961 43.71502,27.83368c13.86161,16.58331 19.94481,36.80365 19.43141,52.48548c-1.02014,31.15961 -23.08142,52.82845 -52.59628,52.13571c-16.09247,-0.3777 -30.48738,-7.58896 -40.08597,-18.88199c-0.54659,2.25465 -2.0817,4.14412 -4.17987,5.14475c-0.10798,0.07543 -0.22866,0.14908 -0.3781,0.22061c-6.25825,2.99432 -11.18509,8.31854 -13.4773,14.85349c-1.02837,3.26327 -3.12307,6.59131 -5.91912,9.40423c-4.93234,4.94686 -11.2394,7.51695 -15.88296,6.47218c-0.49161,0.21701 -1.023,0.32989 -1.5606,0.33186c-2.14763,-0.00015 -3.8886,-1.73657 -3.88875,-3.8786c0.00136,-0.42647 0.07321,-0.8498 0.21268,-1.25295c-1.41308,-4.63929 1.09685,-11.25045 6.23295,-16.41757c2.59854,-2.60316 5.65069,-4.61287 8.69531,-5.7255c0.05528,-0.02792 0.1109,-0.05595 0.17392,-0.07726c6.58471,-2.22769 12.02634,-7.09383 15.12771,-13.29886c0.93276,-2.80919 3.39501,-4.83825 6.33692,-5.22205c1.16975,-1.37754 2.88793,-2.17198 4.69787,-2.17217c0.7523,0.00054 1.49813,0.13859 2.20053,0.40729l4.1241,-3.46378c7.45645,8.2414 18.25001,13.42048 30.25636,13.42048c22.50119,0 40.8711,-18.19358 40.74196,-40.63569c-0.06298,-10.94505 -3.12556,-24.63422 -10.09427,-37.74701c-6.87545,-12.9373 -18.5309,-25.31279 -33.88259,-33.93629z" stroke-width="0.50004"/></g></g></g></svg>